<svg width="49" height="48" viewBox="0 0 49 48" fill="none" xmlns="http://www.w3.org/2000/svg">
<path d="M22.7681 32.6666C22.9436 32.9706 23.1961 33.2231 23.5001 33.3986C23.8042 33.5741 24.149 33.6665 24.5001 33.6665C24.8511 33.6665 25.196 33.5741 25.5 33.3986C25.8041 33.2231 26.0565 32.9706 26.2321 32.6666M34.5001 19.6666C34.5001 17.3666 33.7001 15.3666 32.5001 13.6666M16.5001 13.6666C15.3001 15.3666 14.5001 17.3666 14.5001 19.6666M15.7621 26.9926C15.6315 27.1358 15.5452 27.3139 15.5139 27.5051C15.4826 27.6964 15.5076 27.8927 15.5858 28.07C15.664 28.2474 15.792 28.3982 15.9543 28.5041C16.1167 28.61 16.3063 28.6665 16.5001 28.6666H32.5001C32.6939 28.6667 32.8835 28.6105 33.046 28.5047C33.2084 28.399 33.3366 28.2484 33.415 28.0711C33.4934 27.8939 33.5186 27.6977 33.4875 27.5064C33.4565 27.3151 33.3705 27.137 33.2401 26.9936C31.9101 25.6226 30.5001 24.1656 30.5001 19.6666C30.5001 18.0753 29.868 16.5492 28.7427 15.424C27.6175 14.2988 26.0914 13.6666 24.5001 13.6666C22.9088 13.6666 21.3827 14.2988 20.2575 15.424C19.1322 16.5492 18.5001 18.0753 18.5001 19.6666C18.5001 24.1656 17.0891 25.6226 15.7621 26.9926Z" stroke="white" stroke-width="2" stroke-linecap="round" stroke-linejoin="round"/>
</svg>
