<svg width="49" height="48" viewBox="0 0 49 48" fill="none" xmlns="http://www.w3.org/2000/svg">
<path d="M14.5502 13.7167H16.5502L19.2102 26.1367C19.3078 26.5915 19.5609 26.9982 19.9259 27.2865C20.291 27.5749 20.7451 27.727 21.2102 27.7167H30.9902C31.4454 27.7159 31.8867 27.56 32.2412 27.2745C32.5958 26.9891 32.8423 26.5912 32.9402 26.1467L34.5902 18.7167H17.6202M21.5002 32.6667C21.5002 33.219 21.0525 33.6667 20.5002 33.6667C19.9479 33.6667 19.5002 33.219 19.5002 32.6667C19.5002 32.1144 19.9479 31.6667 20.5002 31.6667C21.0525 31.6667 21.5002 32.1144 21.5002 32.6667ZM32.5002 32.6667C32.5002 33.219 32.0525 33.6667 31.5002 33.6667C30.9479 33.6667 30.5002 33.219 30.5002 32.6667C30.5002 32.1144 30.9479 31.6667 31.5002 31.6667C32.0525 31.6667 32.5002 32.1144 32.5002 32.6667Z" stroke="white" stroke-width="2" stroke-linecap="round" stroke-linejoin="round"/>
</svg>
