<svg width="23" height="24" viewBox="0 0 23 24" fill="none" xmlns="http://www.w3.org/2000/svg">
<path d="M5.83121 2V22.6154M2.3953 2H9.26711C9.89965 2 10.4124 2.51277 10.4124 3.1453V21.4701C10.4124 22.1027 9.89965 22.6154 9.26711 22.6154H2.3953C1.76277 22.6154 1.25 22.1027 1.25 21.4701V3.1453C1.25 2.51277 1.76277 2 2.3953 2ZM21.1783 20.2103C21.4073 20.7829 21.0637 21.4701 20.4911 21.6992L18.315 22.5009C17.7423 22.73 17.0552 22.3864 16.8261 21.8137L10.5269 4.40513C10.2979 3.83248 10.6415 3.1453 11.2141 2.91624L13.3902 2.11453C13.9629 1.88547 14.65 2.22906 14.8791 2.80171L21.1783 20.2103Z" stroke="#334155" stroke-width="2.2906" stroke-linecap="round" stroke-linejoin="round"/>
</svg>
