<svg width="21" height="23" viewBox="0 0 21 23" fill="none" xmlns="http://www.w3.org/2000/svg">
<path d="M19.6389 6.69321L12.9722 0.848807C12.3611 0.302195 11.57 0 10.75 0C9.93011 0 9.13896 0.302195 8.52783 0.848807L1.86121 6.69321C1.50829 7.00885 1.22666 7.39605 1.03507 7.82903C0.843487 8.26201 0.746342 8.73084 0.750105 9.2043V18.9153C0.750105 19.7994 1.10129 20.6472 1.72641 21.2724C2.35153 21.8975 3.19937 22.2487 4.08342 22.2487H17.4167C18.3007 22.2487 19.1485 21.8975 19.7737 21.2724C20.3988 20.6472 20.75 19.7994 20.75 18.9153V9.19319C20.7521 8.7216 20.6542 8.25491 20.4627 7.82396C20.2712 7.39301 19.9904 7.0076 19.6389 6.69321ZM12.9722 20.0264H8.52783V14.4709C8.52783 14.1763 8.64489 13.8936 8.85326 13.6853C9.06164 13.4769 9.34425 13.3598 9.63893 13.3598H11.8611C12.1558 13.3598 12.4384 13.4769 12.6468 13.6853C12.8552 13.8936 12.9722 14.1763 12.9722 14.4709V20.0264ZM18.5278 18.9153C18.5278 19.21 18.4107 19.4926 18.2023 19.701C17.9939 19.9094 17.7113 20.0264 17.4167 20.0264H15.1944V14.4709C15.1944 13.5869 14.8433 12.739 14.2181 12.1139C13.593 11.4888 12.7452 11.1376 11.8611 11.1376H9.63893C8.75488 11.1376 7.90704 11.4888 7.28192 12.1139C6.65681 12.739 6.30562 13.5869 6.30562 14.4709V20.0264H4.08342C3.78873 20.0264 3.50612 19.9094 3.29775 19.701C3.08937 19.4926 2.97231 19.21 2.97231 18.9153V9.19319C2.97251 9.03543 3.0063 8.87952 3.07144 8.73584C3.13658 8.59215 3.23157 8.46399 3.35009 8.35987L10.0167 2.52657C10.2195 2.34844 10.4801 2.2502 10.75 2.2502C11.0199 2.2502 11.2806 2.34844 11.4834 2.52657L18.15 8.35987C18.2685 8.46399 18.3635 8.59215 18.4286 8.73584C18.4938 8.87952 18.5276 9.03543 18.5278 9.19319V18.9153Z" fill="#026A49"/>
</svg>
