<svg width="21" height="20" viewBox="0 0 21 20" fill="none" xmlns="http://www.w3.org/2000/svg">
<path d="M19.57 7.55L17.68 6.92L18.57 5.14C18.6602 4.95369 18.6904 4.74397 18.6564 4.53977C18.6223 4.33558 18.5258 4.14698 18.38 4L16.25 1.87C16.1022 1.72209 15.9118 1.62421 15.7055 1.59013C15.4993 1.55605 15.2875 1.58748 15.1 1.68L13.32 2.57L12.69 0.680003C12.6235 0.482995 12.4972 0.311629 12.3287 0.189751C12.1602 0.0678737 11.9579 0.00154767 11.75 3.33353e-06H8.75C8.54036 -0.000537828 8.33584 0.0648223 8.16537 0.186845C7.9949 0.308868 7.86709 0.481382 7.8 0.680003L7.17 2.57L5.39 1.68C5.20369 1.58978 4.99397 1.55961 4.78977 1.59364C4.58558 1.62767 4.39698 1.72423 4.25 1.87L2.12 4C1.97209 4.14777 1.87421 4.33818 1.84013 4.54446C1.80605 4.75074 1.83748 4.96251 1.93 5.15L2.82 6.93L0.930003 7.56C0.732995 7.62654 0.561629 7.75283 0.439751 7.92131C0.317874 8.08979 0.251548 8.29207 0.250003 8.5V11.5C0.249462 11.7096 0.314822 11.9142 0.436845 12.0846C0.558868 12.2551 0.731382 12.3829 0.930003 12.45L2.82 13.08L1.93 14.86C1.83978 15.0463 1.80961 15.256 1.84364 15.4602C1.87767 15.6644 1.97423 15.853 2.12 16L4.25 18.13C4.39777 18.2779 4.58818 18.3758 4.79446 18.4099C5.00074 18.444 5.21251 18.4125 5.4 18.32L7.18 17.43L7.81 19.32C7.87709 19.5186 8.0049 19.6911 8.17537 19.8132C8.34585 19.9352 8.55036 20.0005 8.76 20H11.76C11.9696 20.0005 12.1742 19.9352 12.3446 19.8132C12.5151 19.6911 12.6429 19.5186 12.71 19.32L13.34 17.43L15.12 18.32C15.3051 18.4079 15.5128 18.4369 15.7149 18.4029C15.917 18.3689 16.1038 18.2736 16.25 18.13L18.38 16C18.5279 15.8522 18.6258 15.6618 18.6599 15.4555C18.694 15.2493 18.6625 15.0375 18.57 14.85L17.68 13.07L19.57 12.44C19.767 12.3735 19.9384 12.2472 20.0602 12.0787C20.1821 11.9102 20.2485 11.7079 20.25 11.5V8.5C20.2505 8.29036 20.1852 8.08584 20.0632 7.91537C19.9411 7.7449 19.7686 7.61709 19.57 7.55ZM18.25 10.78L17.05 11.18C16.7741 11.2695 16.5209 11.418 16.3081 11.6151C16.0952 11.8122 15.9278 12.0533 15.8175 12.3216C15.7071 12.5899 15.6564 12.8789 15.669 13.1688C15.6815 13.4586 15.7569 13.7422 15.89 14L16.46 15.14L15.36 16.24L14.25 15.64C13.9936 15.5122 13.7127 15.4411 13.4263 15.4313C13.14 15.4215 12.8549 15.4734 12.5903 15.5834C12.3258 15.6934 12.0879 15.8589 11.8929 16.0688C11.6979 16.2787 11.5503 16.5281 11.46 16.8L11.06 18H9.47L9.07 16.8C8.98049 16.5241 8.83203 16.2709 8.6349 16.0581C8.43777 15.8452 8.19671 15.6778 7.92842 15.5675C7.66013 15.4571 7.37105 15.4064 7.08123 15.419C6.7914 15.4315 6.50777 15.5069 6.25 15.64L5.11 16.21L4.01 15.11L4.61 14C4.7431 13.7422 4.81852 13.4586 4.83105 13.1688C4.84357 12.8789 4.7929 12.5899 4.68254 12.3216C4.57218 12.0533 4.40478 11.8122 4.19195 11.6151C3.97911 11.418 3.72595 11.2695 3.45 11.18L2.25 10.78V9.22L3.45 8.82C3.72595 8.73049 3.97911 8.58203 4.19195 8.3849C4.40478 8.18777 4.57218 7.94671 4.68254 7.67842C4.7929 7.41013 4.84357 7.12105 4.83105 6.83123C4.81852 6.5414 4.7431 6.25777 4.61 6L4.04 4.89L5.14 3.79L6.25 4.36C6.50777 4.4931 6.7914 4.56852 7.08123 4.58105C7.37105 4.59357 7.66013 4.5429 7.92842 4.43254C8.19671 4.32218 8.43777 4.15478 8.6349 3.94195C8.83203 3.72911 8.98049 3.47595 9.07 3.2L9.47 2H11.03L11.43 3.2C11.5195 3.47595 11.668 3.72911 11.8651 3.94195C12.0622 4.15478 12.3033 4.32218 12.5716 4.43254C12.8399 4.5429 13.1289 4.59357 13.4188 4.58105C13.7086 4.56852 13.9922 4.4931 14.25 4.36L15.39 3.79L16.49 4.89L15.89 6C15.7622 6.25645 15.6911 6.53735 15.6813 6.82369C15.6715 7.11003 15.7234 7.39513 15.8334 7.65968C15.9434 7.92424 16.1089 8.16207 16.3188 8.35708C16.5287 8.55209 16.7781 8.69973 17.05 8.79L18.25 9.19V10.78ZM10.25 6C9.45887 6 8.68552 6.2346 8.02772 6.67412C7.36992 7.11365 6.85723 7.73836 6.55448 8.46927C6.25173 9.20017 6.17252 10.0044 6.32686 10.7804C6.4812 11.5563 6.86216 12.269 7.42157 12.8284C7.98098 13.3878 8.69372 13.7688 9.46964 13.9231C10.2456 14.0775 11.0498 13.9983 11.7807 13.6955C12.5116 13.3928 13.1364 12.8801 13.5759 12.2223C14.0154 11.5645 14.25 10.7911 14.25 10C14.25 8.93913 13.8286 7.92172 13.0784 7.17157C12.3283 6.42143 11.3109 6 10.25 6ZM10.25 12C9.85444 12 9.46776 11.8827 9.13886 11.6629C8.80996 11.4432 8.55362 11.1308 8.40224 10.7654C8.25087 10.3999 8.21126 9.99778 8.28843 9.60982C8.3656 9.22186 8.55608 8.86549 8.83579 8.58579C9.11549 8.30608 9.47186 8.1156 9.85982 8.03843C10.2478 7.96126 10.6499 8.00087 11.0154 8.15224C11.3808 8.30362 11.6932 8.55996 11.9129 8.88886C12.1327 9.21776 12.25 9.60444 12.25 10C12.25 10.5304 12.0393 11.0391 11.6642 11.4142C11.2891 11.7893 10.7804 12 10.25 12Z" fill="#334155"/>
</svg>
