<svg width="21" height="20" viewBox="0 0 21 20" fill="none" xmlns="http://www.w3.org/2000/svg">
<path d="M6.25 14C6.64782 14 7.02936 13.842 7.31066 13.5607C7.59196 13.2794 7.75 12.8978 7.75 12.5C7.75488 12.4501 7.75488 12.3999 7.75 12.35L10.54 9.56H10.77H11L12.61 11.17C12.61 11.17 12.61 11.22 12.61 11.25C12.61 11.6478 12.768 12.0294 13.0493 12.3107C13.3306 12.592 13.7122 12.75 14.11 12.75C14.5078 12.75 14.8894 12.592 15.1707 12.3107C15.452 12.0294 15.61 11.6478 15.61 11.25V11.17L19.25 7.5C19.5467 7.5 19.8367 7.41203 20.0834 7.2472C20.33 7.08238 20.5223 6.84811 20.6358 6.57403C20.7493 6.29994 20.7791 5.99834 20.7212 5.70736C20.6633 5.41639 20.5204 5.14912 20.3107 4.93934C20.1009 4.72956 19.8336 4.5867 19.5426 4.52882C19.2517 4.47094 18.9501 4.50065 18.676 4.61418C18.4019 4.72771 18.1676 4.91997 18.0028 5.16664C17.838 5.41332 17.75 5.70333 17.75 6C17.7451 6.04988 17.7451 6.10012 17.75 6.15L14.14 9.76H13.98L12.25 8C12.25 7.60217 12.092 7.22064 11.8107 6.93934C11.5294 6.65803 11.1478 6.5 10.75 6.5C10.3522 6.5 9.97064 6.65803 9.68934 6.93934C9.40803 7.22064 9.25 7.60217 9.25 8L6.25 11C5.85217 11 5.47064 11.158 5.18934 11.4393C4.90803 11.7206 4.75 12.1022 4.75 12.5C4.75 12.8978 4.90803 13.2794 5.18934 13.5607C5.47064 13.842 5.85217 14 6.25 14ZM19.75 18H2.75V1C2.75 0.734783 2.64464 0.48043 2.45711 0.292893C2.26957 0.105357 2.01522 0 1.75 0C1.48478 0 1.23043 0.105357 1.04289 0.292893C0.855357 0.48043 0.75 0.734783 0.75 1V19C0.75 19.2652 0.855357 19.5196 1.04289 19.7071C1.23043 19.8946 1.48478 20 1.75 20H19.75C20.0152 20 20.2696 19.8946 20.4571 19.7071C20.6446 19.5196 20.75 19.2652 20.75 19C20.75 18.7348 20.6446 18.4804 20.4571 18.2929C20.2696 18.1054 20.0152 18 19.75 18Z" fill="#334155"/>
</svg>
